<?xml version="1.0" encoding="utf-8"?>
<!-- Generator: Adobe Illustrator 25.1.0, SVG Export Plug-In . SVG Version: 6.00 Build 0)  -->
<svg version="1.1" id="Layer_1" xmlns="http://www.w3.org/2000/svg" xmlns:xlink="http://www.w3.org/1999/xlink" x="0px" y="0px"
	 viewBox="0 0 100 100" style="enable-background:new 0 0 100 100;" xml:space="preserve">
<style type="text/css">
	.st0{fill:none;stroke:#FFFFFF;stroke-miterlimit:10;}
	.st1{fill:#FFFFFF;}
</style>
<g id="Layer_2_1_">
	<g id="Layer_1-2">
		<g id="XMLID_3_">
			<g>
				<path d="M51.1,37.8h0.1c0,0,0,0.1,0,0.2c0,0.9-0.4,4-5.5,4H19.4L51.1,37.8z"/>
				<path d="M45.6,33.9c5.7,0,5.5,3.9,5.5,3.9L19.4,42H12c-6,0-5.5-4.2-5.5-4.2s-0.3-3.9,5.5-3.9H45.6z"/>
			</g>
			<g>
				<path class="st0" d="M51.2,37.8c0,0,0,0.1,0,0.2c0,0.9-0.4,4-5.5,4H19.4H12c-6,0-5.5-4.2-5.5-4.2s-0.3-3.9,5.5-3.9h33.6
					c5.7,0,5.5,3.9,5.5,3.9"/>
			</g>
		</g>
		<circle class="st1" cx="39.5" cy="50" r="20.1"/>
		<g id="XMLID_1_">
			<g>
				<path d="M78.6,61.9c0,0,0,0.1,0,0.2c0,0.9-0.4,4-5.5,4H46.8L78.6,61.9z"/>
				<path d="M73.1,58.1c5.7,0,5.5,3.8,5.5,3.8l-31.8,4.2h-7.3c-6,0-5.5-4.2-5.5-4.2s-0.3-3.8,5.5-3.8H73.1z"/>
			</g>
			<g>
				<path class="st0" d="M78.6,61.9c0,0,0,0.1,0,0.2c0,0.9-0.4,4-5.5,4H46.8h-7.3c-6,0-5.5-4.2-5.5-4.2s-0.3-3.8,5.5-3.8h33.6
					C78.8,58.1,78.6,61.9,78.6,61.9"/>
			</g>
		</g>
		<g id="XMLID_2_">
			<g>
				<path d="M93.5,50.1c0,0,0,0.1,0,0.2c0,0.9-0.4,4-5.5,4H61.7L93.5,50.1z"/>
				<path d="M88,46.3c5.7,0,5.5,3.8,5.5,3.8l-31.8,4.2h-7.3c-6,0-5.5-4.2-5.5-4.2s-0.3-3.8,5.5-3.8H88z"/>
			</g>
			<g>
				<path class="st0" d="M93.5,50.1c0,0,0,0.1,0,0.2c0,0.9-0.4,4-5.5,4H61.7h-7.3c-6,0-5.5-4.2-5.5-4.2s-0.3-3.8,5.5-3.8H88
					C93.7,46.3,93.5,50.1,93.5,50.1"/>
			</g>
		</g>
	</g>
</g>
</svg>
